<svg width="20" height="20" viewBox="0 0 20 20" fill="none" xmlns="http://www.w3.org/2000/svg">
<path d="M13.3333 17.5H4.16667C3.70833 17.5 3.31597 17.3368 2.98958 17.0104C2.66319 16.684 2.5 16.2917 2.5 15.8333V4.16667C2.5 3.70833 2.66319 3.31597 2.98958 2.98958C3.31597 2.66319 3.70833 2.5 4.16667 2.5H15.8333C16.2917 2.5 16.684 2.66319 17.0104 2.98958C17.3368 3.31597 17.5 3.70833 17.5 4.16667V13.3333L13.3333 17.5ZM12.5 15.8333V14.1667C12.5 13.7083 12.6632 13.316 12.9896 12.9896C13.316 12.6632 13.7083 12.5 14.1667 12.5H15.8333V4.16667H4.16667V15.8333H12.5ZM9.16667 13.3333H10.8333V8.33333H13.3333V6.66667H6.66667V8.33333H9.16667V13.3333Z" fill="#5D479B"/>
</svg>
