<svg width="20" height="20" viewBox="0 0 20 20" fill="none" xmlns="http://www.w3.org/2000/svg">
<g clip-path="url(#clip0_10_5)">
<path d="M12.0084 1.91083C12.8156 2.11075 13.5881 2.431 14.3 2.86083C14.4428 2.94696 14.5564 3.07392 14.6262 3.2253C14.696 3.37668 14.7188 3.54552 14.6917 3.71C14.5975 4.28417 14.74 4.72333 15.0084 4.99167C15.2767 5.26 15.7167 5.4025 16.29 5.30833C16.4545 5.28119 16.6234 5.30401 16.7747 5.37383C16.9261 5.44365 17.0531 5.55727 17.1392 5.7C17.5691 6.4119 17.8893 7.18444 18.0892 7.99167C18.1295 8.15361 18.1201 8.32391 18.0625 8.48051C18.0049 8.63711 17.9015 8.7728 17.7659 8.87C17.2934 9.20917 17.0825 9.62 17.0825 10C17.0825 10.38 17.2934 10.7917 17.7659 11.1308C17.9014 11.228 18.0046 11.3635 18.0622 11.52C18.1199 11.6764 18.1293 11.8465 18.0892 12.0083C17.8893 12.8156 17.569 13.5881 17.1392 14.3C17.0531 14.4427 16.9261 14.5564 16.7747 14.6262C16.6234 14.696 16.4545 14.7188 16.29 14.6917C15.7159 14.5975 15.2767 14.7408 15.0084 15.0083C14.74 15.2767 14.5975 15.7167 14.6917 16.29C14.719 16.4546 14.6963 16.6236 14.6265 16.7752C14.5566 16.9267 14.4429 17.0538 14.3 17.14C13.5881 17.5698 12.8156 17.8901 12.0084 18.09C11.8464 18.1302 11.6761 18.1209 11.5195 18.0633C11.3629 18.0056 11.2272 17.9023 11.13 17.7667C10.7909 17.2933 10.38 17.0833 10 17.0833C9.62004 17.0833 9.20837 17.2933 8.86921 17.7667C8.77206 17.9022 8.63652 18.0054 8.48009 18.063C8.32366 18.1207 8.15353 18.1301 7.99171 18.09C7.18449 17.8901 6.41196 17.5698 5.70004 17.14C5.55716 17.0538 5.44344 16.9267 5.37361 16.7752C5.30378 16.6236 5.28106 16.4546 5.30837 16.29C5.40254 15.7167 5.25921 15.2775 4.99171 15.0092C4.72254 14.7408 4.28337 14.5975 3.71004 14.6925C3.54543 14.7198 3.37641 14.6971 3.22486 14.6273C3.07332 14.5574 2.94622 14.4437 2.86004 14.3008C2.43007 13.5884 2.10981 12.8153 1.91004 12.0075C1.86998 11.8457 1.87937 11.6756 1.93701 11.5191C1.99465 11.3627 2.09789 11.2271 2.23337 11.13C2.70671 10.7917 2.91671 10.38 2.91671 10C2.91671 9.62083 2.70671 9.20833 2.23337 8.87C2.09789 8.77286 1.99465 8.63731 1.93701 8.48088C1.87937 8.32445 1.86998 8.15433 1.91004 7.9925C2.10988 7.18499 2.43013 6.41217 2.86004 5.7C2.94622 5.55712 3.07332 5.4434 3.22486 5.37357C3.37641 5.30374 3.54543 5.28102 3.71004 5.30833C4.28337 5.4025 4.72254 5.26 4.99087 4.99167C5.25921 4.72333 5.40254 4.28333 5.30754 3.71C5.2804 3.54552 5.30321 3.37668 5.37304 3.2253C5.44286 3.07392 5.55648 2.94696 5.69921 2.86083C6.41137 2.43092 7.1842 2.11066 7.99171 1.91083C8.15353 1.87077 8.32366 1.88017 8.48009 1.93781C8.63652 1.99545 8.77206 2.09868 8.86921 2.23417C9.20837 2.70667 9.62004 2.9175 10 2.9175C10.3792 2.9175 10.7917 2.70667 11.13 2.23417C11.2272 2.09868 11.3627 1.99545 11.5192 1.93781C11.6756 1.88017 11.8465 1.87077 12.0084 1.91083ZM10 5.83333C8.89497 5.83333 7.83516 6.27232 7.05376 7.05372C6.27236 7.83512 5.83337 8.89493 5.83337 10C5.83337 11.1051 6.27236 12.1649 7.05376 12.9463C7.83516 13.7277 8.89497 14.1667 10 14.1667C11.1051 14.1667 12.1649 13.7277 12.9463 12.9463C13.7277 12.1649 14.1667 11.1051 14.1667 10C14.1667 8.89493 13.7277 7.83512 12.9463 7.05372C12.1649 6.27232 11.1051 5.83333 10 5.83333ZM10 7.5C10.6631 7.5 11.299 7.76339 11.7678 8.23223C12.2366 8.70107 12.5 9.33696 12.5 10C12.5 10.663 12.2366 11.2989 11.7678 11.7678C11.299 12.2366 10.6631 12.5 10 12.5C9.337 12.5 8.70111 12.2366 8.23227 11.7678C7.76343 11.2989 7.50004 10.663 7.50004 10C7.50004 9.33696 7.76343 8.70107 8.23227 8.23223C8.70111 7.76339 9.337 7.5 10 7.5Z" fill="#5D479B"/>
</g>
<defs>
<clipPath id="clip0_10_5">
<rect width="20" height="20" fill="white"/>
</clipPath>
</defs>
</svg>
