<svg width="20" height="20" viewBox="0 0 20 20" fill="none" xmlns="http://www.w3.org/2000/svg">
<g clip-path="url(#clip0_19_14)">
<path d="M15.8333 2.5C16.2754 2.5 16.6993 2.67559 17.0118 2.98816C17.3244 3.30072 17.5 3.72464 17.5 4.16667V15.8333C17.5 16.2754 17.3244 16.6993 17.0118 17.0118C16.6993 17.3244 16.2754 17.5 15.8333 17.5H4.16667C3.72464 17.5 3.30072 17.3244 2.98816 17.0118C2.67559 16.6993 2.5 16.2754 2.5 15.8333V4.16667C2.5 3.72464 2.67559 3.30072 2.98816 2.98816C3.30072 2.67559 3.72464 2.5 4.16667 2.5H15.8333ZM15.8333 4.16667H4.16667V15.8333H15.8333V4.16667ZM13.3333 11.6667C13.5457 11.6669 13.75 11.7482 13.9045 11.894C14.0589 12.0398 14.1519 12.2391 14.1643 12.4512C14.1768 12.6632 14.1078 12.872 13.9714 13.0349C13.8351 13.1977 13.6417 13.3024 13.4308 13.3275L13.3333 13.3333H11.6667C11.4543 13.3331 11.25 13.2518 11.0955 13.106C10.9411 12.9602 10.8481 12.7609 10.8357 12.5488C10.8232 12.3368 10.8922 12.128 11.0286 11.9651C11.1649 11.8023 11.3583 11.6976 11.5692 11.6725L11.6667 11.6667H13.3333ZM7.54167 7.05417L9.89917 9.41083C10.0554 9.56711 10.1432 9.77903 10.1432 10C10.1432 10.221 10.0554 10.4329 9.89917 10.5892L7.54167 12.9467C7.3853 13.1029 7.17326 13.1907 6.95221 13.1906C6.73115 13.1905 6.51917 13.1026 6.36292 12.9462C6.20666 12.7899 6.11892 12.5778 6.119 12.3568C6.11908 12.1357 6.20697 11.9238 6.36333 11.7675L8.13083 10.0008L6.36417 8.2325C6.28271 8.15612 6.21744 8.06415 6.17223 7.96205C6.12702 7.85995 6.10278 7.7498 6.10097 7.63815C6.09916 7.52651 6.1198 7.41563 6.16168 7.31212C6.20355 7.20861 6.2658 7.11456 6.34473 7.03558C6.42366 6.95659 6.51766 6.89427 6.62114 6.85233C6.72463 6.81038 6.83549 6.78966 6.94713 6.79139C7.05878 6.79313 7.16895 6.81728 7.27108 6.86242C7.37321 6.90756 7.46523 6.97277 7.54167 7.05417Z" fill="#5D479B"/>
</g>
<defs>
<clipPath id="clip0_19_14">
<rect width="20" height="20" fill="white"/>
</clipPath>
</defs>
</svg>
